<svg width="110" height="147" viewBox="0 0 110 147" fill="none" xmlns="http://www.w3.org/2000/svg">
<path fill-rule="evenodd" clip-rule="evenodd" d="M42.2861 0.368975C40.3264 0.806833 37.6437 3.35677 37.1169 5.28218C36.5861 7.22371 36.5861 139.571 37.1169 141.512C37.6927 143.616 40.3048 145.975 42.6224 146.482C44.4383 146.88 44.7949 146.801 74.8273 139.29C96.343 133.908 105.618 131.447 106.645 130.846C107.53 130.329 108.466 129.367 109.047 128.378L110 126.757V73.3972V20.0376L109.047 18.4169C108.466 17.4276 107.53 16.4654 106.645 15.9479C105.618 15.3467 96.3818 12.8984 74.9007 7.53186C58.2384 3.36913 44.4181 -0.0201555 44.1889 9.02337e-05C43.9597 0.020336 43.1035 0.18642 42.2861 0.368975ZM4.99649 15.2301C2.99627 15.9311 0.853996 18.4162 0.391774 20.5715C-0.136332 23.035 -0.127753 123.799 0.400696 126.265C0.883164 128.514 3.25947 131.127 5.33964 131.696C6.20471 131.933 10.9312 132.073 18.1219 132.074L29.5316 132.076V124.698V117.32H22.3255H15.1194V73.3972V29.4742H22.3255H29.5316V22.0965V14.7188L17.9504 14.7339C8.92726 14.7455 6.06574 14.8553 4.99649 15.2301ZM70.1107 66.0569C72.0601 67.4254 73.1513 69.4784 73.3689 72.1855C73.6036 75.1109 72.9808 77.4865 71.5368 79.1734C68.5675 82.6423 62.9063 82.3397 60.2434 78.5702C59.2473 77.1598 59.214 76.9886 59.214 73.2569C59.214 69.6483 59.273 69.3117 60.1347 68.0098C62.2454 64.8202 67.0186 63.8858 70.1107 66.0569Z" fill="black"/>
</svg>
