<svg width="110" height="53" viewBox="0 0 110 53" fill="none" xmlns="http://www.w3.org/2000/svg">
<path fill-rule="evenodd" clip-rule="evenodd" d="M18.9727 0.651898C13.7125 2.53135 11.0741 6.80352 11.0741 13.4434C11.0741 16.4027 11.2886 17.2971 12.6158 19.871C14.3459 23.2256 17.6045 25.8636 20.1999 26.0103C21.0129 26.0566 18.6032 26.2222 14.8445 26.3783C7.41403 26.6878 6.27773 27.0265 3.56492 29.7414C0.745137 32.5644 0.00142581 34.6221 1.1911e-05 39.6076C-0.00140199 43.6977 0.121136 44.3105 1.40024 46.6225C2.94092 49.4063 4.94442 51.1749 7.65628 52.1434C10.0043 52.9822 73.5341 53.1289 73.019 52.2944C72.7932 51.9292 73.0331 51.8929 73.8159 52.1736C74.4315 52.3948 75.7836 52.5755 76.8205 52.5755C77.8573 52.5755 79.2095 52.3948 79.825 52.1736C80.6078 51.8929 80.8477 51.9292 80.622 52.2944C80.391 52.6685 82.4799 52.8086 87.986 52.7887C94.1162 52.7666 95.4953 52.6472 94.7968 52.1991C92.5789 50.7763 91.4388 49.6601 90.1884 47.6863C89.4461 46.5145 88.8386 45.3412 88.8386 45.0789C88.8386 44.8171 89.5277 45.7531 90.3704 47.1594C93.5172 52.4128 99.2006 54.0974 104.093 51.2273C106.571 49.7738 108.806 46.7103 109.639 43.6245C110.387 40.8591 109.919 35.5048 108.726 33.1757C106.577 28.9795 103.213 26.6915 99.1577 26.6665C95.5499 26.6444 92.487 28.5224 90.3704 32.0558C89.5277 33.4621 88.8386 34.398 88.8386 34.1362C88.8386 32.9804 91.7918 29.1597 93.6157 27.9554L95.6159 26.6345L91.8738 26.367C89.8156 26.2203 88.7232 26.0608 89.4466 26.0132C90.1696 25.966 91.5745 25.5117 92.5685 25.0041C98.3419 22.0557 100.781 13.3731 97.6406 6.94834C94.7167 0.966084 88.7576 -1.48135 83.6067 1.18451C82.9149 1.54304 81.4425 2.85167 80.335 4.09237C78.6326 6.0006 78.4606 6.10486 79.2203 4.76839C79.7152 3.89895 81.0207 2.53654 82.1226 1.74023C83.2245 0.943914 84.1256 0.222136 84.1256 0.136278C84.1256 0.0508911 69.8632 -0.00996609 52.4307 0.0013559C27.2327 0.0178671 20.3743 0.1509 18.9727 0.651898ZM91.0061 3.70978C93.2608 4.73489 94.8175 6.72898 95.729 9.76045C96.5576 12.5169 96.5477 13.8666 95.6772 16.8008C94.3279 21.349 89.9009 24.3035 86.2451 23.0959C84.3193 22.4595 82.4275 21.0254 81.6867 19.6394C81.385 19.0761 81.8888 19.411 82.8055 20.3838C84.7902 22.4901 85.8793 22.5982 87.5473 20.8555C91.616 16.6036 91.3125 8.67778 86.9398 4.99483C85.162 3.49749 84.308 3.80272 82.2258 6.68039C81.4562 7.74372 80.8265 8.41784 80.8265 8.17867C80.8265 7.30216 83.8584 4.09426 85.2671 3.48004C87.2508 2.61579 88.7293 2.67476 91.0061 3.70978ZM77.9987 3.7546C77.9987 4.06407 67.9445 4.22635 48.7781 4.22635C29.6118 4.22635 19.5575 4.06407 19.5575 3.7546C19.5575 3.44513 29.6118 3.28285 48.7781 3.28285C67.9445 3.28285 77.9987 3.44513 77.9987 3.7546ZM77.378 9.97604C77.2277 10.352 77.116 10.2402 77.0934 9.69063C77.0731 9.1934 77.1843 8.91507 77.3408 9.07169C77.4973 9.22831 77.5142 9.63543 77.378 9.97604ZM81.0037 17.6712C81.1734 18.1901 81.0004 17.9779 80.6192 17.1995C80.2204 16.3848 79.9466 14.5836 79.9744 12.9537L80.022 10.1232L80.359 13.4255C80.5442 15.2417 80.8345 17.1523 81.0037 17.6712ZM76.9232 14.0086C76.8148 14.7256 76.7234 14.251 76.7196 12.9537C76.7163 11.6564 76.8049 11.0696 76.9166 11.6498C77.0283 12.2301 77.0312 13.2915 76.9232 14.0086ZM77.378 17.0523C77.2277 17.4283 77.116 17.3165 77.0934 16.7669C77.0731 16.2696 77.1843 15.9913 77.3408 16.1479C77.4973 16.3046 77.5142 16.7117 77.378 17.0523ZM78.4554 19.5582C78.4554 19.8177 78.2499 19.7115 77.9987 19.3223C77.7475 18.9331 77.542 18.4024 77.542 18.143C77.542 17.8835 77.7475 17.9896 77.9987 18.3788C78.2499 18.768 78.4554 19.2988 78.4554 19.5582ZM82.3776 24.2946C83.2094 24.9748 83.4474 25.3131 82.9068 25.0466C81.8493 24.5243 78.4667 20.9645 78.4752 20.3824C78.478 20.1885 79.0167 20.7112 79.6728 21.5438C80.3284 22.3764 81.5457 23.6143 82.3776 24.2946ZM87.8569 26.2297C87.9648 26.3226 87.1693 26.3986 86.0895 26.3986C85.0093 26.3986 84.1256 26.1995 84.1256 25.9566C84.1256 25.5636 87.3583 25.7999 87.8569 26.2297ZM74.6968 26.8392C70.4853 28.1214 67.8898 30.8623 66.401 35.5977C66.0748 36.6356 65.7958 37.0601 65.7812 36.5412C65.7308 34.7736 67.9483 30.8845 70.0305 29.0894C71.1729 28.1049 72.3196 27.1072 72.5788 26.8722C72.838 26.6378 73.6863 26.4533 74.464 26.4627C75.8369 26.4793 75.8435 26.4901 74.6968 26.8392ZM80.9642 26.8755C81.2771 27.1378 82.1396 27.8082 82.8805 28.3648C84.3679 29.4834 86.9544 32.8493 86.9515 33.6635C86.9506 33.9489 86.5043 33.4395 85.9595 32.5313C84.0135 29.2866 81.8808 27.6133 78.7057 26.8397L77.2918 26.4953L78.8433 26.4467C79.6968 26.4203 80.6512 26.6132 80.9642 26.8755ZM67.1588 29.7008C67.1588 30.0103 57.1046 30.1726 37.9382 30.1726C18.7719 30.1726 8.71765 30.0103 8.71765 29.7008C8.71765 29.3914 18.7719 29.2291 37.9382 29.2291C57.1046 29.2291 67.1588 29.3914 67.1588 29.7008ZM79.4513 30.007C83.3904 31.585 85.7676 37.1498 84.6459 42.1673C82.732 50.7286 73.7264 52.6062 69.9659 45.228C69.4588 44.2331 69.0459 43.1452 69.0487 42.8108C69.0511 42.4758 69.5568 43.2849 70.1723 44.6077C70.7878 45.9309 71.9656 47.4943 72.7895 48.0816L74.2877 49.1492L76.3383 47.007C77.9408 45.3332 78.5068 44.2968 78.9281 42.2668C79.8043 38.0404 78.5469 33.8706 75.663 31.4416C73.9993 30.0405 73.9366 29.8461 75.0531 29.5541C76.6296 29.1418 77.5194 29.2333 79.4513 30.007ZM101.113 29.699C103.119 30.2566 105.486 32.5879 106.488 34.9929C107.496 37.4121 107.415 42.206 106.326 44.561C104.879 47.6891 101.815 49.9861 99.0899 49.9861C97.018 49.9861 94.0413 48.0628 92.7806 45.9097C92.1047 44.7553 91.6551 43.7076 91.7814 43.5811C91.9077 43.4547 92.2777 43.9958 92.6038 44.7841C92.9295 45.5719 93.9258 46.8574 94.8171 47.641L96.4379 49.0652L97.8772 48.0392C99.9099 46.5904 101.554 42.8197 101.554 39.6076C101.554 36.4016 99.9109 32.6252 97.8881 31.1836L96.46 30.1655L94.9886 31.4048C93.5083 32.6516 92.3003 34.5858 91.6353 36.7743C91.3936 37.5696 91.263 37.6805 91.2357 37.112C91.1339 34.9863 94.3726 30.7439 96.8507 29.7579C98.3858 29.147 99.0937 29.1371 101.113 29.699ZM72.6363 31.2142C71.8902 31.7709 70.7789 33.3031 70.1667 34.6193C69.5545 35.936 69.0511 36.7393 69.0487 36.4044C69.0355 34.6825 72.4487 30.1231 73.7028 30.1877C73.8621 30.1957 73.3823 30.658 72.6363 31.2142ZM88.3673 39.6076C88.3673 41.3932 88.2057 42.9542 88.0077 43.0768C87.8098 43.199 87.6481 41.638 87.6481 39.6076C87.6481 37.5772 87.8098 36.0162 88.0077 36.1383C88.2057 36.261 88.3673 37.822 88.3673 39.6076ZM68.9102 40.9049C68.8023 41.6182 68.7141 41.0346 68.7141 39.6076C68.7141 38.1805 68.8023 37.597 68.9102 38.3103C69.0181 39.0236 69.0181 40.1916 68.9102 40.9049ZM65.5984 40.4331C65.4801 40.8874 65.383 40.5157 65.383 39.6076C65.383 38.6995 65.4801 38.3277 65.5984 38.782C65.7171 39.2363 65.7171 39.9789 65.5984 40.4331ZM91.0358 40.1973C90.9053 40.5218 90.7983 40.2562 90.7983 39.6076C90.7983 38.9589 90.9053 38.6938 91.0358 39.0179C91.1669 39.3425 91.1669 39.8732 91.0358 40.1973ZM91.5071 42.556C91.3766 42.8806 91.2696 42.615 91.2696 41.9663C91.2696 41.3177 91.3766 41.0526 91.5071 41.3766C91.6382 41.7012 91.6382 42.2319 91.5071 42.556ZM67.7744 46.9905C68.1999 47.8075 69.4399 49.2402 70.5305 50.1748C71.6206 51.1088 72.3068 51.8731 72.0547 51.8731C71.803 51.8731 70.7157 50.9711 69.6383 49.8681C67.6103 47.7915 65.7501 44.3171 65.7869 42.674C65.7987 42.155 66.0763 42.5796 66.4043 43.6175C66.7323 44.6553 67.3488 46.1729 67.7744 46.9905ZM86.2493 47.023C85.096 48.8421 83.1293 50.9164 82.0048 51.4999C81.4864 51.7688 81.9181 51.2419 82.9643 50.3295C84.0102 49.4172 85.2737 47.9132 85.7714 46.9881C86.2691 46.063 86.7673 45.3969 86.879 45.5082C86.9902 45.6196 86.7069 46.3012 86.2493 47.023Z" fill="black"/>
</svg>
