<svg width="110" height="110" viewBox="0 0 110 110" fill="none" xmlns="http://www.w3.org/2000/svg">
<path fill-rule="evenodd" clip-rule="evenodd" d="M4.935 0.541557C3.09944 1.24618 1.24253 3.12764 0.546493 4.98799C-0.617329 8.09855 0.0961317 11.2025 2.5109 13.5341L3.9447 14.9185V40.838V66.7577H3.36745C3.04986 66.7577 2.41739 67.0087 1.96212 67.3158C-0.649235 69.0755 -0.649235 72.2936 1.96212 74.0533L2.7902 74.6114H13.1846H23.579V79.1155C23.579 83.394 23.607 83.6611 24.1371 84.4477C24.4439 84.9032 25.0677 85.5271 25.5233 85.8338L26.3513 86.392H38.7091H51.067V90.8961C51.067 95.1746 51.0949 95.4416 51.6251 96.2282C51.9319 96.6838 52.5557 97.3076 53.0113 97.6144L53.8393 98.1725H66.1971H78.555V102.677C78.555 106.955 78.5829 107.222 79.1131 108.009C79.4198 108.464 80.0437 109.088 80.4992 109.395L81.3273 109.953H94.2624H107.197L108.026 109.395C110.637 107.635 110.637 104.417 108.026 102.657C107.57 102.35 106.938 102.099 106.62 102.099H106.043V76.1797V50.2602L107.477 48.8758C110.772 45.694 110.849 40.8527 107.654 37.6584C102.717 32.7216 94.2624 36.218 94.2624 43.1965C94.2624 45.4464 95.0411 47.2206 96.7554 48.8758C98.1357 50.2087 98.1892 50.3068 98.1892 51.5141C98.1892 52.204 98.097 52.7682 97.9841 52.7682C97.8712 52.7682 78.461 44.7182 54.85 34.879L11.9211 16.9899L11.845 15.9682C11.7734 15.0059 11.8529 14.8657 13.2175 13.5483C14.9473 11.8781 15.7253 10.1118 15.7253 7.85484C15.7253 2.32509 10.1435 -1.45795 4.935 0.541557ZM19.6494 40.2065C19.6519 50.9226 19.6276 51.5661 19.2226 51.4358C18.9863 51.3597 17.2469 50.6507 15.3571 49.8599L11.9211 48.4224L11.8573 37.0009L11.7935 25.5794L15.7201 27.2091L19.6465 28.839L19.6494 40.2065ZM32.353 34.1579L35.3595 35.3963V46.7852V58.1743L34.4392 57.7855C33.9331 57.5718 32.166 56.8377 30.5123 56.1542L27.5058 54.9116V43.5286V32.1456L28.4262 32.5324C28.9325 32.7452 30.6993 33.4766 32.353 34.1579ZM47.5083 40.4774L50.9443 41.9331L51.0081 53.333L51.0719 64.7331L47.1489 63.1069L43.226 61.481L43.2196 50.1134C43.2135 39.3966 43.2378 38.7535 43.6428 38.8839C43.8791 38.9597 45.6185 39.6768 47.5083 40.4774ZM66.7717 59.8243C66.7732 66.0675 66.7275 71.1754 66.6701 71.1754C66.6129 71.1754 64.8733 70.4708 62.8046 69.6098L59.0434 68.044L58.9796 56.6288L58.9158 45.2137L62.8424 46.8434L66.7687 48.4732L66.7717 59.8243ZM79.4753 53.7914L82.4818 55.0456V66.4271V77.8086L81.5615 77.4198C81.0554 77.2061 79.2883 76.472 77.6346 75.7885L74.6281 74.5459V63.1629V51.7799L75.5485 52.1586C76.0548 52.3667 77.8216 53.1015 79.4753 53.7914ZM98.1333 97.5263L98.2 102.099H92.3044H86.4087V97.5953C86.4087 93.3167 86.3807 93.0497 85.8506 92.2631C85.5438 91.8076 84.9199 91.1837 84.4644 90.8769L83.6363 90.3188H71.2785H58.9207V85.8147C58.9207 81.5362 58.8927 81.2691 58.3626 80.4825C58.0558 80.027 57.4319 79.4031 56.9764 79.0963L56.1483 78.5382H43.7905H31.4327V74.0341C31.4327 69.7556 31.4047 69.4886 30.8746 68.702C30.5678 68.2464 29.9439 67.6226 29.4884 67.3158C28.667 66.7621 28.5923 66.7577 20.2294 66.7577H11.7984V61.8825V57.007L54.9325 74.9803L98.0665 92.9532L98.1333 97.5263ZM94.6305 60.0943L98.0665 61.5318L98.1303 72.9496L98.1941 84.3674L94.2712 82.7412L90.3483 81.1152L90.3419 69.7477C90.3358 59.0306 90.3601 58.3878 90.765 58.5184C91.0011 58.5945 92.7407 59.3035 94.6305 60.0943Z" fill="black"/>
</svg>
