<svg width="110" height="101" viewBox="0 0 110 101" fill="none" xmlns="http://www.w3.org/2000/svg">
<path fill-rule="evenodd" clip-rule="evenodd" d="M3.66524 0.280994C2.42604 0.608811 0.604916 2.39975 0.271484 3.61859C-0.0904947 4.94249 -0.0904947 95.1878 0.271484 96.5117C0.659669 97.9301 2.44172 99.5505 3.97527 99.8794C5.6883 100.247 104.312 100.247 106.025 99.8794C107.558 99.5505 109.34 97.9301 109.729 96.5117C110.09 95.1878 110.09 4.94249 109.729 3.61859C109.368 2.30124 107.588 0.61817 106.18 0.263679C104.74 -0.0990017 5.03758 -0.0821543 3.66524 0.280994ZM40.1116 11.2047C40.3002 12.3831 41.5195 13.9711 42.7157 14.5954C43.6273 15.0713 43.9469 15.084 55 15.084C66.0531 15.084 66.3727 15.0713 67.2843 14.5954C68.4805 13.9711 69.6998 12.3831 69.8884 11.2047L70.0351 10.2872H84.9804H99.9256V20.1147V29.9422H55H10.0744V20.1147V10.2872H25.0196H39.9649L40.1116 11.2047ZM40.1116 41.1551C40.3002 42.3335 41.5195 43.9215 42.7157 44.5458C43.6273 45.0218 43.9469 45.0344 55 45.0344C66.0531 45.0344 66.3727 45.0218 67.2843 44.5458C68.4805 43.9215 69.6998 42.3335 69.8884 41.1551L70.0351 40.2376H84.9804H99.9256V50.0651V59.8926H55H10.0744V50.0651V40.2376H25.0196H39.9649L40.1116 41.1551ZM40.1116 71.1055C40.3002 72.2839 41.5195 73.872 42.7157 74.4962C43.6273 74.9722 43.9469 74.9848 55 74.9848C66.0531 74.9848 66.3727 74.9722 67.2843 74.4962C68.4805 73.872 69.6998 72.2839 69.8884 71.1055L70.0351 70.1881H84.9804H99.9256V80.0155V89.843H55H10.0744V80.0155V70.1881H25.0196H39.9649L40.1116 71.1055Z" fill="black"/>
</svg>
